<?xml version="1.0" encoding="utf-8"?>
<!-- Generator: Adobe Illustrator 19.1.0, SVG Export Plug-In . SVG Version: 6.00 Build 0)  -->
<svg version="1.1" id="Layer_1" xmlns="http://www.w3.org/2000/svg" xmlns:xlink="http://www.w3.org/1999/xlink" x="0px" y="0px"
	 viewBox="0 0 300 500" style="enable-background:new 0 0 300 500;" xml:space="preserve">
<style type="text/css">
	.st0{fill:none;}
	.st1{fill:#C1272D;stroke:#C1272D;stroke-width:0.5;stroke-miterlimit:10;}
	.st2{font-family:'Montserrat-Regular';}
	.st3{font-size:23.3864px;}
	.st4{fill:#CCCCCC;}
	.st5{fill:#C1272D;stroke:#FFFFFF;stroke-width:3;stroke-miterlimit:10;}
	.st6{fill:#A05A5F;stroke:#FFFFFF;stroke-width:3;stroke-miterlimit:10;}
	.st7{fill:#DB9196;stroke:#FFFFFF;stroke-width:3;stroke-miterlimit:10;}
	.st8{fill:#F7D7D9;stroke:#FFFFFF;stroke-width:3;stroke-miterlimit:10;}
	.st9{fill:#DBDBDB;stroke:#FFFFFF;stroke-width:3;stroke-miterlimit:10;}
	.st10{fill:#A0A0A0;stroke:#FFFFFF;stroke-width:3;stroke-miterlimit:10;}
	.st11{font-size:17.8182px;}
</style>
<rect y="-21.8" class="st0" width="349.2" height="556.8"/>
<rect x="24.7" y="2" class="st0" width="287.5" height="128.2"/>
<text transform="matrix(0.9708 0 0 1 24.6562 19.3252)" class="st1 st2 st3">MAP KEY</text>
<rect x="24.7" y="33.2" class="st4" width="280.9" height="40.5"/>
<rect x="24.7" y="79.2" class="st4" width="280.9" height="40.5"/>
<rect x="24.7" y="126.5" class="st4" width="280.9" height="40.5"/>
<rect x="24.7" y="173.7" class="st4" width="280.9" height="40.5"/>
<rect x="24.7" y="220.1" class="st4" width="280.9" height="40.5"/>
<rect x="24.7" y="269" class="st4" width="280.9" height="40.5"/>
<ellipse class="st5" cx="25" cy="55.1" rx="12.3" ry="11.8"/>
<ellipse class="st6" cx="25" cy="99.7" rx="12.3" ry="11.8"/>
<ellipse class="st7" cx="25" cy="146.4" rx="12.3" ry="11.8"/>
<ellipse class="st8" cx="25" cy="194.3" rx="12.3" ry="11.8"/>
<ellipse class="st9" cx="25" cy="240" rx="12.3" ry="11.8"/>
<ellipse class="st10" cx="25" cy="289" rx="12.3" ry="11.8"/>
<rect x="57" y="235.4" class="st0" width="222.8" height="83.5"/>
<text transform="matrix(0.9708 0 0 1 57.0088 248.6358)" class="st2 st11">North America</text>
<rect x="57" y="186.4" class="st0" width="222.8" height="83.5"/>
<text transform="matrix(0.9708 0 0 1 57.0088 199.6358)" class="st2 st11">Europe</text>
<rect x="57" y="92.7" class="st0" width="190.8" height="101.2"/>
<text transform="matrix(0.9708 0 0 1 57.0088 105.9365)" class="st2 st11">Asia</text>
<rect x="57" y="140.8" class="st0" width="222.8" height="83.5"/>
<text transform="matrix(0.9708 0 0 1 57.0088 153.9766)" class="st2 st11">Australia</text>
<rect x="57" y="281.2" class="st0" width="222.8" height="83.5"/>
<text transform="matrix(0.9708 0 0 1 57.0088 294.4473)" class="st2 st11">South America</text>
<rect x="57" y="46.1" class="st0" width="222.8" height="83.5"/>
<text transform="matrix(0.9708 0 0 1 57.0088 59.3174)" class="st2 st11">Africa</text>
</svg>
